<?xml version="1.0" encoding="utf-8"?>
<!-- Generator: Adobe Illustrator 26.3.1, SVG Export Plug-In . SVG Version: 6.00 Build 0)  -->
<svg version="1.1" id="Layer_1" xmlns="http://www.w3.org/2000/svg" xmlns:xlink="http://www.w3.org/1999/xlink" x="0px" y="0px"
	 viewBox="0 0 26.9 19" style="enable-background:new 0 0 26.9 19;" xml:space="preserve">
<style type="text/css">
	.st0{fill:#464646;}
	.st1{fill:none;stroke:#FFFFFF;stroke-width:0.7087;stroke-linecap:round;stroke-linejoin:round;}
</style>
<g>
	<path class="st0" d="M7.4,1.2c-1.1,0-2.1,0.2-3,0.5V16c1-0.3,2-0.5,3-0.5c2.3,0,4.4,0.9,6,2.3V3.5C11.8,2,9.6,1.2,7.4,1.2z"/>
	<path class="st0" d="M13.4,3.5v14.2c1.6-1.5,3.8-2.3,6-2.3c1,0,2,0.2,3,0.5V1.7c-0.9-0.3-1.9-0.5-3-0.5C17.2,1.2,15.1,2,13.4,3.5z"
		/>
	<path class="st1" d="M13.4,3.5c-1.6-1.5-3.8-2.3-6-2.3c-1.1,0-2.1,0.2-3,0.5V16c1-0.3,2-0.5,3-0.5c2.3,0,4.4,0.9,6,2.3 M13.4,3.5
		c1.6-1.5,3.8-2.3,6-2.3c1.1,0,2.1,0.2,3,0.5V16c-1-0.3-2-0.5-3-0.5c-2.2,0-4.4,0.8-6,2.3 M13.4,3.5v14.2"/>
</g>
</svg>
